<svg xmlns="http://www.w3.org/2000/svg" viewBox="0 0 500 500" width="500" height="500">
  <defs>
    <mask id="ringMask">
      <rect width="500" height="500" fill="black"/>
      <circle cx="250" cy="250" r="230" fill="white"/>
      <circle cx="250" cy="250" r="190" fill="black"/>
    </mask>
  </defs>

  <!-- Outer orange ring (rind) -->
  <circle cx="250" cy="250" r="230" fill="#F58A07" mask="url(#ringMask)"/>

  <!-- Orange citrus segments -->
  <g fill="#F58A07">
    <path d="M 254.88,194.21 A 14,14 0 0,0 267.15,211.66 A 42,42 0 0,1 264.98,210.76 A 14,14 0 0,0 286.00,207.10 L 351.56,128.96 A 14,14 0 0,0 349.48,109.69 A 172,172 0 0,0 278.87,80.44 A 14,14 0 0,0 263.77,92.60 Z"/>
    <path d="M 292.90,214.00 A 14,14 0 0,0 289.24,235.02 A 42,42 0 0,1 288.34,232.85 A 14,14 0 0,0 305.79,245.12 L 407.40,236.23 A 14,14 0 0,0 419.56,221.13 A 172,172 0 0,0 390.31,150.52 A 14,14 0 0,0 371.04,148.44 Z"/>
    <path d="M 305.79,254.88 A 14,14 0 0,0 288.34,267.15 A 42,42 0 0,1 289.24,264.98 A 14,14 0 0,0 292.90,286.00 L 371.04,351.56 A 14,14 0 0,0 390.31,349.48 A 172,172 0 0,0 419.56,278.87 A 14,14 0 0,0 407.40,263.77 Z"/>
    <path d="M 286.00,292.90 A 14,14 0 0,0 264.98,289.24 A 42,42 0 0,1 267.15,288.34 A 14,14 0 0,0 254.88,305.79 L 263.77,407.40 A 14,14 0 0,0 278.87,419.56 A 172,172 0 0,0 349.48,390.31 A 14,14 0 0,0 351.56,371.04 Z"/>
    <path d="M 245.12,305.79 A 14,14 0 0,0 232.85,288.34 A 42,42 0 0,1 235.02,289.24 A 14,14 0 0,0 214.00,292.90 L 148.44,371.04 A 14,14 0 0,0 150.52,390.31 A 172,172 0 0,0 221.13,419.56 A 14,14 0 0,0 236.23,407.40 Z"/>
    <path d="M 207.10,286.00 A 14,14 0 0,0 210.76,264.98 A 42,42 0 0,1 211.66,267.15 A 14,14 0 0,0 194.21,254.88 L 92.60,263.77 A 14,14 0 0,0 80.44,278.87 A 172,172 0 0,0 109.69,349.48 A 14,14 0 0,0 128.96,351.56 Z"/>
    <path d="M 194.21,245.12 A 14,14 0 0,0 211.66,232.85 A 42,42 0 0,1 210.76,235.02 A 14,14 0 0,0 207.10,214.00 L 128.96,148.44 A 14,14 0 0,0 109.69,150.52 A 172,172 0 0,0 80.44,221.13 A 14,14 0 0,0 92.60,236.23 Z"/>
    <path d="M 214.00,207.10 A 14,14 0 0,0 235.02,210.76 A 42,42 0 0,1 232.85,211.66 A 14,14 0 0,0 245.12,194.21 L 236.23,92.60 A 14,14 0 0,0 221.13,80.44 A 172,172 0 0,0 150.52,109.69 A 14,14 0 0,0 148.44,128.96 Z"/>
  </g>
</svg>